#N canvas 397 231 865 810 10;
#X declare -lib moocow;
#X msg 48 32 close;
#X floatatom 110 246 5 0 0 0 - - -;
#X floatatom 150 245 5 0 0 0 - - -;
#X obj 572 31 loadbang;
#X obj 113 186 touche_serial;
#X text 74 246 x y z;
#X floatatom 189 245 5 0 0 0 - - -;
#X obj 110 221 int;
#X obj 150 221 int;
#X obj 189 221 int;
#X msg 94 31 0.9;
#X floatatom 150 330 5 0 0 0 - - -;
#X obj 150 306 abs;
#X obj 150 282 % 127;
#X msg 122 104 devicename /dev/cu.usbmodem1421;
#X msg 113 78 devicename /dev/cu.usbmodem1411;
#X floatatom 89 509 5 0 0 0 - - -;
#X floatatom 190 330 5 0 0 0 - - -;
#X obj 190 306 abs;
#X obj 190 282 % 127;
#X floatatom 110 330 5 0 0 0 - - -;
#X obj 110 306 abs;
#X obj 110 282 % 127;
#X obj 89 529 ctlout 64 1;
#X obj 89 488 change;
#X obj 118 451 tgl 15 0 empty empty empty 17 7 0 10 -262144 -1 -1 1
1;
#X obj 89 466 *;
#X floatatom 169 509 5 0 0 0 - - -;
#X obj 169 488 change;
#X obj 198 451 tgl 15 0 empty empty empty 17 7 0 10 -262144 -1 -1 1
1;
#X obj 169 466 *;
#X floatatom 249 509 5 0 0 0 - - -;
#X obj 249 488 change;
#X obj 278 451 tgl 15 0 empty empty empty 17 7 0 10 -262144 -1 -1 1
1;
#X obj 249 466 *;
#X obj 169 529 ctlout 64 2;
#X obj 249 529 ctlout 64 3;
#X connect 0 0 4 0;
#X connect 1 0 22 0;
#X connect 2 0 13 0;
#X connect 3 0 10 0;
#X connect 3 0 15 0;
#X connect 3 0 25 0;
#X connect 3 0 29 0;
#X connect 3 0 33 0;
#X connect 4 0 7 0;
#X connect 4 1 8 0;
#X connect 4 2 9 0;
#X connect 6 0 19 0;
#X connect 7 0 1 0;
#X connect 8 0 2 0;
#X connect 9 0 6 0;
#X connect 10 0 4 0;
#X connect 11 0 30 0;
#X connect 12 0 11 0;
#X connect 13 0 12 0;
#X connect 15 0 4 0;
#X connect 16 0 23 0;
#X connect 17 0 34 0;
#X connect 18 0 17 0;
#X connect 19 0 18 0;
#X connect 20 0 26 0;
#X connect 21 0 20 0;
#X connect 22 0 21 0;
#X connect 24 0 16 0;
#X connect 25 0 26 1;
#X connect 26 0 24 0;
#X connect 27 0 35 0;
#X connect 28 0 27 0;
#X connect 29 0 30 1;
#X connect 30 0 28 0;
#X connect 31 0 36 0;
#X connect 32 0 31 0;
#X connect 33 0 34 1;
#X connect 34 0 32 0;
