#N canvas 172 316 865 810 10;
#X declare -lib moocow;
#X msg 48 32 close;
#X floatatom 112 246 5 0 0 0 - - -;
#X floatatom 150 245 5 0 0 0 - - -;
#X obj 340 14 loadbang;
#X obj 113 186 touche_serial;
#X text 76 246 x y z;
#X floatatom 189 245 5 0 0 0 - - -;
#X obj 112 221 int;
#X obj 150 221 int;
#X obj 189 221 int;
#X msg 94 31 0.9;
#X floatatom 510 303 5 0 0 0 - - -;
#X obj 510 228 tgl 15 0 empty empty empty 17 7 0 10 -262144 -1 -1 0
1;
#X obj 510 279 snapshot~;
#X obj 510 255 metro 100;
#X floatatom 189 331 5 0 0 0 - - -;
#X obj 189 307 abs;
#X floatatom 150 330 5 0 0 0 - - -;
#X obj 150 306 abs;
#X obj 510 327 ctlout 64;
#X obj 150 282 % 127;
#X obj 150 388 ctlout 64 2;
#X obj 226 389 ctlout 64 3;
#X msg 122 104 devicename /dev/cu.usbmodem1421;
#X msg 113 78 devicename /dev/cu.usbmodem1411;
#X connect 0 0 4 0;
#X connect 2 0 20 0;
#X connect 3 0 10 0;
#X connect 3 0 24 0;
#X connect 4 0 7 0;
#X connect 4 1 8 0;
#X connect 4 2 9 0;
#X connect 6 0 16 0;
#X connect 7 0 1 0;
#X connect 8 0 2 0;
#X connect 9 0 6 0;
#X connect 10 0 4 0;
#X connect 11 0 19 0;
#X connect 12 0 14 0;
#X connect 13 0 11 0;
#X connect 14 0 13 0;
#X connect 15 0 22 0;
#X connect 16 0 15 0;
#X connect 17 0 21 0;
#X connect 18 0 17 0;
#X connect 20 0 18 0;
#X connect 24 0 4 0;
