#N canvas 306 337 915 700 10;
#X obj 183 219 zl group 16;
#X obj 183 248 bytes2any;
#X obj 183 128 inlet;
#X obj 180 369 outlet;
#X obj 230 370 outlet;
#X obj 183 159 comport \$1 115200;
#X obj 183 273 unpack f f f;
#X floatatom 181 322 5 0 0 0 - - -;
#X floatatom 218 321 5 0 0 0 - - -;
#X floatatom 257 322 5 0 0 0 - - -;
#X obj 279 370 outlet;
#X obj 183 189 select 10 13;
#X connect 0 0 1 0;
#X connect 1 0 6 0;
#X connect 2 0 5 0;
#X connect 5 0 11 0;
#X connect 6 0 7 0;
#X connect 6 1 8 0;
#X connect 6 2 9 0;
#X connect 7 0 3 0;
#X connect 8 0 4 0;
#X connect 9 0 10 0;
#X connect 11 0 0 0;
#X connect 11 2 0 0;
